<mxfile host="app.diagrams.net" agent="Mozilla/5.0 (X11; Ubuntu; Linux x86_64; rv:129.0) Gecko/20100101 Firefox/129.0" version="26.1.3">
  <diagram name="Page-1" id="9f46799a-70d6-7492-0946-bef42562c5a5">
    <mxGraphModel dx="1194" dy="1600" grid="1" gridSize="10" guides="1" tooltips="1" connect="1" arrows="1" fold="1" page="1" pageScale="1" pageWidth="1100" pageHeight="850" background="none" math="0" shadow="0">
      <root>
        <mxCell id="0" />
        <mxCell id="1" parent="0" />
        <mxCell id="b9SfL_vI9lznVfg9gyNj-30" style="edgeStyle=orthogonalEdgeStyle;rounded=0;orthogonalLoop=1;jettySize=auto;html=1;exitX=0.75;exitY=1;exitDx=0;exitDy=0;entryX=0;entryY=0.25;entryDx=0;entryDy=0;" edge="1" parent="1" source="78961159f06e98e8-17" target="78961159f06e98e8-30">
          <mxGeometry relative="1" as="geometry">
            <mxPoint x="490" y="350" as="targetPoint" />
            <Array as="points">
              <mxPoint x="460" y="180" />
              <mxPoint x="460" y="350" />
            </Array>
          </mxGeometry>
        </mxCell>
        <mxCell id="b9SfL_vI9lznVfg9gyNj-31" value="uses singleton instance" style="edgeLabel;html=1;align=center;verticalAlign=middle;resizable=0;points=[];" vertex="1" connectable="0" parent="b9SfL_vI9lznVfg9gyNj-30">
          <mxGeometry x="-0.3478" relative="1" as="geometry">
            <mxPoint as="offset" />
          </mxGeometry>
        </mxCell>
        <mxCell id="78961159f06e98e8-17" value="EmployeeService" style="swimlane;html=1;fontStyle=1;align=center;verticalAlign=top;childLayout=stackLayout;horizontal=1;startSize=26;horizontalStack=0;resizeParent=1;resizeLast=0;collapsible=1;marginBottom=0;swimlaneFillColor=#ffffff;rounded=0;shadow=0;comic=0;labelBackgroundColor=none;strokeWidth=1;fillColor=none;fontFamily=Verdana;fontSize=12" parent="1" vertex="1">
          <mxGeometry x="330" y="140" width="160" height="40" as="geometry" />
        </mxCell>
        <mxCell id="78961159f06e98e8-30" value="EmployeeModel" style="swimlane;html=1;fontStyle=1;align=center;verticalAlign=top;childLayout=stackLayout;horizontal=1;startSize=26;horizontalStack=0;resizeParent=1;resizeLast=0;collapsible=1;marginBottom=0;swimlaneFillColor=#ffffff;rounded=0;shadow=0;comic=0;labelBackgroundColor=none;strokeWidth=1;fillColor=none;fontFamily=Verdana;fontSize=12" parent="1" vertex="1">
          <mxGeometry x="510" y="340" width="160" height="40" as="geometry" />
        </mxCell>
        <mxCell id="b9SfL_vI9lznVfg9gyNj-5" value="" style="edgeStyle=orthogonalEdgeStyle;rounded=0;orthogonalLoop=1;jettySize=auto;html=1;entryX=0.25;entryY=1;entryDx=0;entryDy=0;" edge="1" parent="1" source="b9SfL_vI9lznVfg9gyNj-3" target="78961159f06e98e8-17">
          <mxGeometry relative="1" as="geometry">
            <Array as="points">
              <mxPoint x="370" y="420" />
              <mxPoint x="370" y="420" />
            </Array>
          </mxGeometry>
        </mxCell>
        <mxCell id="b9SfL_vI9lznVfg9gyNj-6" value="uses singleton instance" style="edgeLabel;html=1;align=center;verticalAlign=middle;resizable=0;points=[];" vertex="1" connectable="0" parent="b9SfL_vI9lznVfg9gyNj-5">
          <mxGeometry x="0.0121" y="-2" relative="1" as="geometry">
            <mxPoint as="offset" />
          </mxGeometry>
        </mxCell>
        <mxCell id="b9SfL_vI9lznVfg9gyNj-20" style="edgeStyle=orthogonalEdgeStyle;rounded=0;orthogonalLoop=1;jettySize=auto;html=1;" edge="1" parent="1" source="b9SfL_vI9lznVfg9gyNj-3">
          <mxGeometry relative="1" as="geometry">
            <mxPoint x="780" y="380" as="targetPoint" />
          </mxGeometry>
        </mxCell>
        <mxCell id="b9SfL_vI9lznVfg9gyNj-23" value="uses" style="edgeLabel;html=1;align=center;verticalAlign=middle;resizable=0;points=[];" vertex="1" connectable="0" parent="b9SfL_vI9lznVfg9gyNj-20">
          <mxGeometry x="-0.4286" y="-1" relative="1" as="geometry">
            <mxPoint as="offset" />
          </mxGeometry>
        </mxCell>
        <mxCell id="b9SfL_vI9lznVfg9gyNj-28" style="edgeStyle=orthogonalEdgeStyle;rounded=0;orthogonalLoop=1;jettySize=auto;html=1;exitX=0.5;exitY=0;exitDx=0;exitDy=0;entryX=0;entryY=0.75;entryDx=0;entryDy=0;" edge="1" parent="1" source="b9SfL_vI9lznVfg9gyNj-3" target="78961159f06e98e8-30">
          <mxGeometry relative="1" as="geometry">
            <Array as="points">
              <mxPoint x="460" y="510" />
              <mxPoint x="460" y="370" />
            </Array>
          </mxGeometry>
        </mxCell>
        <mxCell id="b9SfL_vI9lznVfg9gyNj-29" value="uses singleton instance" style="edgeLabel;html=1;align=center;verticalAlign=middle;resizable=0;points=[];" vertex="1" connectable="0" parent="b9SfL_vI9lznVfg9gyNj-28">
          <mxGeometry x="0.088" relative="1" as="geometry">
            <mxPoint as="offset" />
          </mxGeometry>
        </mxCell>
        <mxCell id="b9SfL_vI9lznVfg9gyNj-3" value="&lt;div&gt;EmployeesTableComponent&amp;nbsp;&lt;/div&gt;&lt;div&gt;(or any other component)&lt;/div&gt;" style="swimlane;html=1;fontStyle=1;align=center;verticalAlign=top;childLayout=stackLayout;horizontal=1;startSize=40;horizontalStack=0;resizeParent=1;resizeLast=0;collapsible=1;marginBottom=0;swimlaneFillColor=#ffffff;rounded=0;shadow=0;comic=0;labelBackgroundColor=none;strokeWidth=1;fillColor=none;fontFamily=Verdana;fontSize=12" vertex="1" parent="1">
          <mxGeometry x="300" y="510" width="200" height="70" as="geometry" />
        </mxCell>
        <mxCell id="b9SfL_vI9lznVfg9gyNj-14" style="edgeStyle=orthogonalEdgeStyle;rounded=0;orthogonalLoop=1;jettySize=auto;html=1;entryX=0;entryY=0.5;entryDx=0;entryDy=0;" edge="1" parent="1" source="b9SfL_vI9lznVfg9gyNj-9" target="b9SfL_vI9lznVfg9gyNj-10">
          <mxGeometry relative="1" as="geometry" />
        </mxCell>
        <mxCell id="b9SfL_vI9lznVfg9gyNj-15" value="calls" style="edgeLabel;html=1;align=center;verticalAlign=middle;resizable=0;points=[];" vertex="1" connectable="0" parent="b9SfL_vI9lznVfg9gyNj-14">
          <mxGeometry x="-0.0308" y="-2" relative="1" as="geometry">
            <mxPoint y="-2" as="offset" />
          </mxGeometry>
        </mxCell>
        <mxCell id="b9SfL_vI9lznVfg9gyNj-9" value="EmployeeDAO" style="swimlane;html=1;fontStyle=1;align=center;verticalAlign=top;childLayout=stackLayout;horizontal=1;startSize=26;horizontalStack=0;resizeParent=1;resizeLast=0;collapsible=1;marginBottom=0;swimlaneFillColor=#ffffff;rounded=0;shadow=0;comic=0;labelBackgroundColor=none;strokeWidth=1;fillColor=none;fontFamily=Verdana;fontSize=12" vertex="1" parent="1">
          <mxGeometry x="330" y="-40" width="160" height="40" as="geometry" />
        </mxCell>
        <mxCell id="b9SfL_vI9lznVfg9gyNj-10" value="MockedAPI" style="swimlane;html=1;fontStyle=1;align=center;verticalAlign=top;childLayout=stackLayout;horizontal=1;startSize=26;horizontalStack=0;resizeParent=1;resizeLast=0;collapsible=1;marginBottom=0;swimlaneFillColor=#ffffff;rounded=0;shadow=0;comic=0;labelBackgroundColor=none;strokeWidth=1;fillColor=none;fontFamily=Verdana;fontSize=12" vertex="1" parent="1">
          <mxGeometry x="620" y="-40" width="160" height="40" as="geometry" />
        </mxCell>
        <mxCell id="b9SfL_vI9lznVfg9gyNj-12" style="edgeStyle=elbowEdgeStyle;html=1;labelBackgroundColor=none;startFill=0;startSize=8;endArrow=diamondThin;endFill=0;endSize=16;fontFamily=Verdana;fontSize=12;elbow=vertical;entryX=0.5;entryY=1;entryDx=0;entryDy=0;exitX=0.5;exitY=0;exitDx=0;exitDy=0;" edge="1" parent="1" source="78961159f06e98e8-17" target="b9SfL_vI9lznVfg9gyNj-9">
          <mxGeometry relative="1" as="geometry">
            <mxPoint x="410" y="130" as="sourcePoint" />
            <mxPoint x="600" y="350" as="targetPoint" />
          </mxGeometry>
        </mxCell>
        <mxCell id="b9SfL_vI9lznVfg9gyNj-13" value="contains 1" style="edgeLabel;html=1;align=center;verticalAlign=middle;resizable=0;points=[];" vertex="1" connectable="0" parent="b9SfL_vI9lznVfg9gyNj-12">
          <mxGeometry x="-0.1941" y="-1" relative="1" as="geometry">
            <mxPoint as="offset" />
          </mxGeometry>
        </mxCell>
        <mxCell id="b9SfL_vI9lznVfg9gyNj-16" value="EmployeeDTO" style="swimlane;html=1;fontStyle=1;align=center;verticalAlign=top;childLayout=stackLayout;horizontal=1;startSize=26;horizontalStack=0;resizeParent=1;resizeLast=0;collapsible=1;marginBottom=0;swimlaneFillColor=#ffffff;rounded=0;shadow=0;comic=0;labelBackgroundColor=none;strokeWidth=1;fillColor=none;fontFamily=Verdana;fontSize=12" vertex="1" parent="1">
          <mxGeometry x="760" y="340" width="160" height="40" as="geometry" />
        </mxCell>
        <mxCell id="b9SfL_vI9lznVfg9gyNj-17" style="edgeStyle=elbowEdgeStyle;html=1;labelBackgroundColor=none;startFill=0;startSize=8;endArrow=diamondThin;endFill=0;endSize=16;fontFamily=Verdana;fontSize=12;elbow=vertical;exitX=1;exitY=0.5;exitDx=0;exitDy=0;entryX=0;entryY=0.5;entryDx=0;entryDy=0;" edge="1" parent="1" source="78961159f06e98e8-30" target="b9SfL_vI9lznVfg9gyNj-16">
          <mxGeometry relative="1" as="geometry">
            <mxPoint x="410" y="520" as="sourcePoint" />
            <mxPoint x="600" y="390" as="targetPoint" />
          </mxGeometry>
        </mxCell>
        <mxCell id="b9SfL_vI9lznVfg9gyNj-19" value="0..*" style="edgeLabel;html=1;align=center;verticalAlign=middle;resizable=0;points=[];" vertex="1" connectable="0" parent="b9SfL_vI9lznVfg9gyNj-17">
          <mxGeometry x="-0.2889" y="-2" relative="1" as="geometry">
            <mxPoint x="8" y="-2" as="offset" />
          </mxGeometry>
        </mxCell>
        <mxCell id="b9SfL_vI9lznVfg9gyNj-21" style="edgeStyle=orthogonalEdgeStyle;rounded=0;orthogonalLoop=1;jettySize=auto;html=1;entryX=0.194;entryY=0.025;entryDx=0;entryDy=0;entryPerimeter=0;exitX=1;exitY=0.5;exitDx=0;exitDy=0;" edge="1" parent="1" source="78961159f06e98e8-17">
          <mxGeometry relative="1" as="geometry">
            <mxPoint x="560" y="160" as="sourcePoint" />
            <mxPoint x="780" y="340" as="targetPoint" />
          </mxGeometry>
        </mxCell>
        <mxCell id="b9SfL_vI9lznVfg9gyNj-22" value="uses" style="edgeLabel;html=1;align=center;verticalAlign=middle;resizable=0;points=[];" vertex="1" connectable="0" parent="b9SfL_vI9lznVfg9gyNj-21">
          <mxGeometry x="-0.1701" y="-2" relative="1" as="geometry">
            <mxPoint y="-2" as="offset" />
          </mxGeometry>
        </mxCell>
      </root>
    </mxGraphModel>
  </diagram>
</mxfile>
